# xmcd CD database file
#
# Track frame offsets:
#	151
#	5732
#	23649
#	40439
#	56829
#	73856
#	90606
#	104984
#	119935
#	136031
#	153849
#	171680
#	189581
#
# Disc length: 2759 seconds
#
# Revision: 2
# Processed by: cddbd v1.4b41PL1 Copyright (c) Steve Scherf et al.
# Submitted via: Feurio! 1.50.2ß - http://www.feurio.com
#
DISCID=c40ac50d
DTITLE=Paddy Goes To Holyhead - E. and O.E.
DYEAR=1900
DGENRE=
TTITLE0=Every Now And They
TTITLE1=Far Away
TTITLE2=Come Day, Go Day
TTITLE3=Vincent
TTITLE4=Whiskey For The Roadies
TTITLE5=The Japanese Rock'N Roll-Band
TTITLE6=Here We Go
TTITLE7=The Gipsies' Wedding Day
TTITLE8=The Rhythm
TTITLE9=Industrial People
TTITLE10=Benga
TTITLE11=Here's To The People Remix '96
TTITLE12=A Last Song
EXTD=
EXTT0=
EXTT1=
EXTT2=
EXTT3=
EXTT4=
EXTT5=
EXTT6=
EXTT7=
EXTT8=
EXTT9=
EXTT10=
EXTT11=
EXTT12=
PLAYORDER=
